<svg width="72" height="88" viewBox="0 0 72 88" fill="none" xmlns="http://www.w3.org/2000/svg">
<g filter="url(#filter0_d_4_625)">
<path d="M56 36C56 51.464 43.464 64 28 64L0 64L0 8L28 8C43.464 8 56 20.536 56 36Z" fill="#FF9051"/>
<path fill-rule="evenodd" clip-rule="evenodd" d="M31.7071 42.7071C32.0976 42.3166 32.0976 41.6834 31.7071 41.2929L26.4142 36L31.7071 30.7071C32.0976 30.3166 32.0976 29.6834 31.7071 29.2929C31.3166 28.9024 30.6834 28.9024 30.2929 29.2929L24.2929 35.2929C23.9024 35.6834 23.9024 36.3166 24.2929 36.7071L30.2929 42.7071C30.6834 43.0976 31.3166 43.0976 31.7071 42.7071Z" fill="white"/>
</g>
<defs>
<filter id="filter0_d_4_625" x="-16" y="0" width="88" height="88" filterUnits="userSpaceOnUse" color-interpolation-filters="sRGB">
<feFlood flood-opacity="0" result="BackgroundImageFix"/>
<feColorMatrix in="SourceAlpha" type="matrix" values="0 0 0 0 0 0 0 0 0 0 0 0 0 0 0 0 0 0 127 0" result="hardAlpha"/>
<feOffset dy="8"/>
<feGaussianBlur stdDeviation="8"/>
<feComposite in2="hardAlpha" operator="out"/>
<feColorMatrix type="matrix" values="0 0 0 0 0.210031 0 0 0 0 0.0633751 0 0 0 0 0.65 0 0 0 0.2 0"/>
<feBlend mode="normal" in2="BackgroundImageFix" result="effect1_dropShadow_4_625"/>
<feBlend mode="normal" in="SourceGraphic" in2="effect1_dropShadow_4_625" result="shape"/>
</filter>
</defs>
</svg>
