<svg width="430" height="269" viewBox="0 0 430 269" fill="none" xmlns="http://www.w3.org/2000/svg">
<g filter="url(#filter0_d_1_327)">
<path d="M247.444 149.24H209.321C209.321 141.755 209.853 135.163 210.915 129.465C212.067 123.681 214.015 118.493 216.76 113.9C219.505 109.307 223.224 105.055 227.918 101.142C232.08 97.825 235.666 94.6355 238.677 91.5736C241.688 88.5117 243.99 85.4072 245.584 82.2603C247.178 79.1133 247.975 75.7537 247.975 72.1815C247.975 67.7587 247.311 64.1439 245.983 61.3372C244.743 58.5304 242.839 56.4466 240.271 55.0857C237.792 53.6398 234.648 52.9169 230.84 52.9169C227.741 52.9169 224.818 53.6398 222.073 55.0857C219.417 56.5317 217.247 58.7856 215.564 61.8475C213.882 64.8243 212.952 68.7793 212.775 73.7124H167.745C168.011 61.0395 170.933 50.748 176.512 42.8381C182.179 34.8431 189.707 29.0169 199.093 25.3596C208.569 21.6173 219.151 19.7461 230.84 19.7461C243.769 19.7461 254.883 21.6598 264.181 25.4872C273.479 29.3146 280.608 35.0132 285.567 42.5829C290.526 50.0676 293.005 59.2959 293.005 70.2678C293.005 77.5823 291.544 83.9613 288.622 89.4047C285.788 94.7631 281.936 99.7812 277.065 104.459C272.283 109.052 266.926 113.985 260.993 119.258C255.857 123.596 252.359 128.019 250.499 132.527C248.639 136.95 247.621 142.521 247.444 149.24ZM203.875 188.024C203.875 181.9 206.178 176.797 210.782 172.714C215.387 168.547 221.365 166.463 228.715 166.463C236.065 166.463 242.042 168.547 246.647 172.714C251.252 176.797 253.554 181.9 253.554 188.024C253.554 194.148 251.252 199.294 246.647 203.461C242.042 207.544 236.065 209.585 228.715 209.585C221.365 209.585 215.387 207.544 210.782 203.461C206.178 199.294 203.875 194.148 203.875 188.024Z" fill="#FFB184"/>
</g>
<g filter="url(#filter1_d_1_327)">
<path d="M328.838 187.021L307.426 176.074C309.756 171.87 312.106 168.32 314.477 165.425C316.924 162.507 319.633 160.152 322.605 158.361C325.576 156.57 328.989 155.249 332.843 154.399C336.213 153.731 339.22 152.97 341.865 152.114C344.509 151.259 346.768 150.177 348.643 148.867C350.518 147.557 352.012 145.899 353.124 143.892C354.5 141.408 355.253 139.187 355.38 137.229C355.558 135.297 355.137 133.58 354.118 132.078C353.176 130.554 351.635 129.245 349.496 128.152C347.755 127.262 345.889 126.829 343.897 126.852C341.955 126.902 340.034 127.545 338.136 128.781C336.265 129.97 334.511 131.924 332.876 134.644L307.584 121.714C311.678 114.672 316.523 109.731 322.119 106.89C327.791 104.027 333.832 102.916 340.243 103.557C346.73 104.176 353.256 106.164 359.822 109.521C367.083 113.233 372.73 117.499 376.761 122.319C380.792 127.139 383.022 132.387 383.451 138.062C383.907 143.69 382.427 149.586 379.011 155.748C376.734 159.857 373.928 163.02 370.592 165.238C367.333 167.434 363.607 169.147 359.415 170.375C355.3 171.582 350.755 172.814 345.781 174.072C341.546 175.034 338.204 176.514 335.757 178.511C333.335 180.462 331.029 183.298 328.838 187.021ZM292.294 196.294C294.2 192.855 297.082 190.649 300.939 189.679C304.823 188.66 308.829 189.206 312.957 191.317C317.085 193.428 319.794 196.314 321.083 199.978C322.399 203.593 322.103 207.12 320.197 210.56C318.291 214 315.396 216.229 311.512 217.247C307.655 218.218 303.662 217.648 299.534 215.537C295.406 213.427 292.684 210.564 291.368 206.948C290.079 203.285 290.388 199.734 292.294 196.294Z" fill="#CAB7FF"/>
</g>
<g filter="url(#filter2_d_1_327)">
<path d="M120.537 187.021L141.949 176.074C139.62 171.87 137.269 168.32 134.898 165.425C132.452 162.507 129.742 160.152 126.771 158.361C123.799 156.57 120.386 155.249 116.532 154.399C113.162 153.731 110.155 152.97 107.511 152.114C104.866 151.259 102.607 150.177 100.732 148.867C98.857 147.557 97.3635 145.899 96.2515 143.892C94.8748 141.408 94.1226 139.187 93.995 137.229C93.8176 135.297 94.2384 133.58 95.2571 132.078C96.1997 130.554 97.7404 129.245 99.8792 128.152C101.62 127.262 103.486 126.829 105.478 126.852C107.421 126.902 109.341 127.545 111.239 128.781C113.111 129.97 114.864 131.924 116.499 134.644L141.791 121.714C137.697 114.672 132.852 109.731 127.256 106.89C121.584 104.027 115.543 102.916 109.132 103.557C102.645 104.176 96.1191 106.164 89.5536 109.521C82.2918 113.233 76.6453 117.499 72.6142 122.319C68.5831 127.139 66.353 132.387 65.924 138.062C65.4686 143.69 66.9485 149.586 70.3639 155.748C72.6408 159.857 75.4472 163.02 78.783 165.238C82.0426 167.434 85.7683 169.147 89.96 170.375C94.0756 171.582 98.6204 172.814 103.594 174.072C107.829 175.034 111.171 176.514 113.619 178.511C116.04 180.462 118.346 183.298 120.537 187.021ZM157.081 196.294C155.175 192.855 152.293 190.649 148.436 189.679C144.552 188.66 140.546 189.206 136.418 191.317C132.29 193.428 129.581 196.314 128.292 199.978C126.976 203.593 127.272 207.12 129.178 210.56C131.084 214 133.979 216.229 137.863 217.247C141.72 218.218 145.713 217.648 149.841 215.537C153.97 213.427 156.691 210.564 158.007 206.948C159.296 203.285 158.988 199.734 157.081 196.294Z" fill="#FFA9D2"/>
</g>
<path d="M236.732 149.821L237.616 149.831L237.65 148.948C237.907 142.302 238.981 136.863 240.835 132.597L240.838 132.592C242.678 128.28 246.119 124.007 251.236 119.788L251.245 119.78L251.254 119.773C257.258 114.561 262.685 109.681 267.533 105.133C272.523 100.453 276.498 95.4038 279.449 89.9846C282.522 84.4221 284.087 77.9087 284.179 70.4738C284.315 59.3651 281.919 49.9254 276.937 42.2053C271.962 34.41 264.753 28.5197 255.355 24.5243C245.969 20.5343 234.757 18.481 221.743 18.3335C209.958 18.1999 199.239 19.9652 189.597 23.6456C180.006 27.257 172.262 33.1047 166.39 41.1821L166.389 41.1839C160.579 49.2157 157.497 59.6642 157.071 72.4587L157.04 73.3846L157.967 73.3951L202.994 73.9056L203.869 73.9155L203.911 73.0412C204.144 68.1957 205.103 64.4097 206.724 61.6212L206.724 61.6213L206.729 61.6118C208.376 58.6984 210.454 56.6056 212.95 55.2829C215.58 53.9373 218.363 53.2828 221.313 53.3163C225.011 53.3582 227.975 54.0944 230.261 55.4632L230.277 55.4727L230.293 55.4815C232.655 56.7682 234.398 58.7131 235.528 61.3576L235.533 61.3685L235.538 61.3792C236.757 64.0385 237.368 67.5151 237.314 71.8563C237.272 75.2877 236.468 78.4978 234.902 81.4985C233.321 84.5287 231.042 87.5331 228.046 90.5086C225.029 93.5052 221.433 96.6297 217.253 99.882L217.245 99.8882L217.237 99.8944C212.428 103.809 208.584 108.094 205.723 112.754C202.861 117.413 200.814 122.677 199.572 128.539L199.572 128.539L199.57 128.549C198.424 134.303 197.808 140.946 197.716 148.471L197.705 149.378L198.612 149.388L236.732 149.821ZM199.199 171.288C194.351 175.487 191.872 180.808 191.794 187.191C191.715 193.575 194.063 198.99 198.801 203.381L198.808 203.388C203.557 207.699 209.737 209.864 217.262 209.949C224.788 210.035 231.02 208.01 235.873 203.808L235.88 203.802C240.725 199.519 243.205 194.158 243.284 187.775C243.362 181.392 241.014 176.016 236.271 171.708C231.524 167.311 225.344 165.101 217.815 165.016C210.286 164.931 204.053 167 199.199 171.288Z" stroke="white" stroke-width="1.81447"/>
<path d="M322.643 184.267L323.141 184.529L323.432 184.047C325.646 180.387 327.943 177.639 330.315 175.774L330.318 175.772C332.695 173.877 335.959 172.465 340.146 171.565L340.153 171.563L340.16 171.561C345.155 170.358 349.723 169.176 353.861 168.014C358.12 166.818 361.924 165.124 365.267 162.928C368.723 160.687 371.629 157.48 373.994 153.332C377.527 147.134 379.119 141.147 378.724 135.383C378.356 129.577 376.141 124.197 372.105 119.252C368.074 114.315 362.413 109.94 355.148 106.12C348.569 102.66 341.997 100.573 335.434 99.8709C328.921 99.1448 322.75 100.206 316.939 103.056L316.937 103.057C311.176 105.899 306.194 110.881 301.974 117.942L301.671 118.449L302.193 118.723L327.324 131.939L327.817 132.199L328.111 131.724C329.751 129.068 331.47 127.215 333.25 126.113L333.25 126.113L333.256 126.109C335.089 124.945 336.908 124.366 338.719 124.34C340.614 124.34 342.379 124.771 344.023 125.635C346.085 126.72 347.519 127.983 348.375 129.406L348.381 129.416L348.388 129.426C349.313 130.825 349.687 132.418 349.498 134.231L349.498 134.238L349.497 134.245C349.354 136.091 348.614 138.222 347.232 140.646C346.138 142.564 344.686 144.137 342.871 145.374C341.039 146.623 338.823 147.656 336.214 148.467C333.587 149.284 330.594 150.006 327.234 150.632L327.234 150.632L327.221 150.635C323.301 151.452 319.809 152.756 316.752 154.551C313.696 156.345 310.908 158.713 308.387 161.648L308.383 161.653C305.948 164.555 303.535 168.108 301.141 172.307L300.856 172.809L301.367 173.078L322.643 184.267ZM294.866 185.555C290.836 186.521 287.79 188.797 285.762 192.355C283.734 195.913 283.365 199.626 284.66 203.453L284.662 203.458C285.988 207.245 288.786 210.238 292.99 212.449C297.194 214.659 301.327 215.312 305.363 214.345L305.369 214.343C309.423 213.329 312.481 211.032 314.51 207.473C316.538 203.915 316.894 200.225 315.571 196.444C314.273 192.609 311.488 189.591 307.282 187.379C303.076 185.167 298.928 184.539 294.866 185.555Z" stroke="white" stroke-width="1.15453"/>
<path d="M126.732 184.267L126.235 184.529L125.943 184.047C123.729 180.387 121.432 177.639 119.061 175.774L119.058 175.772C116.68 173.877 113.416 172.465 109.229 171.565L109.222 171.563L109.215 171.561C104.22 170.358 99.6527 169.176 95.5141 168.014C91.2548 166.818 87.4509 165.124 84.1079 162.928C80.652 160.687 77.7463 157.48 75.3816 153.332C71.8485 147.134 70.2564 141.147 70.6514 135.383C71.0188 129.577 73.234 124.197 77.2707 119.252C81.3016 114.315 86.9618 109.94 94.227 106.12C100.806 102.66 107.378 100.573 113.941 99.8709C120.455 99.1448 126.625 100.206 132.437 103.056L132.438 103.057C138.2 105.899 143.181 110.881 147.401 117.942L147.704 118.449L147.182 118.723L122.051 131.939L121.558 132.199L121.265 131.724C119.624 129.068 117.906 127.215 116.125 126.113L116.125 126.113L116.119 126.109C114.286 124.945 112.468 124.366 110.656 124.34C108.761 124.34 106.996 124.771 105.353 125.635C103.291 126.72 101.857 127.983 101 129.406L100.994 129.416L100.987 129.426C100.063 130.825 99.6881 132.418 99.8769 134.231L99.8777 134.238L99.8782 134.245C100.021 136.091 100.761 138.222 102.144 140.646C103.237 142.564 104.689 144.137 106.504 145.374C108.336 146.623 110.552 147.656 113.161 148.467C115.788 149.284 118.781 150.006 122.141 150.632L122.141 150.632L122.154 150.635C126.074 151.452 129.566 152.756 132.624 154.551C135.68 156.345 138.467 158.713 140.988 161.648L140.993 161.653C143.427 164.555 145.84 168.108 148.234 172.307L148.52 172.809L148.009 173.078L126.732 184.267ZM154.51 185.555C158.539 186.521 161.585 188.797 163.613 192.355C165.642 195.913 166.01 199.626 164.715 203.453L164.713 203.458C163.388 207.245 160.589 210.238 156.385 212.449C152.181 214.659 148.048 215.312 144.012 214.345L144.007 214.343C139.952 213.329 136.894 211.032 134.865 207.473C132.837 203.915 132.481 200.225 133.804 196.444C135.102 192.609 137.888 189.591 142.093 187.379C146.299 185.167 150.447 184.539 154.51 185.555Z" stroke="white" stroke-width="1.15453"/>
<path d="M430 72C419.762 78 394.288 84.6 374.298 63C349.31 36 338.898 16 302.978 11" stroke="white" stroke-linecap="round"/>
<path d="M0 210.5C13.8822 204.5 47.2688 197.8 69.7579 219C97.8692 245.5 114.528 261 148.886 251" stroke="white" stroke-linecap="round"/>
<path d="M93.2046 28.5C93.2046 35.1086 87.6208 40.5 80.6901 40.5C73.7593 40.5 68.1755 35.1086 68.1755 28.5C68.1755 21.8914 73.7593 16.5 80.6901 16.5C87.6208 16.5 93.2046 21.8914 93.2046 28.5Z" stroke="white"/>
<path d="M332.672 233.5C332.672 235.138 331.283 236.5 329.528 236.5C327.772 236.5 326.384 235.138 326.384 233.5C326.384 231.862 327.772 230.5 329.528 230.5C331.283 230.5 332.672 231.862 332.672 233.5Z" stroke="white"/>
<defs>
<filter id="filter0_d_1_327" x="128.685" y="0.215794" width="203.381" height="267.96" filterUnits="userSpaceOnUse" color-interpolation-filters="sRGB">
<feFlood flood-opacity="0" result="BackgroundImageFix"/>
<feColorMatrix in="SourceAlpha" type="matrix" values="0 0 0 0 0 0 0 0 0 0 0 0 0 0 0 0 0 0 127 0" result="hardAlpha"/>
<feOffset dy="19.5303"/>
<feGaussianBlur stdDeviation="19.5303"/>
<feComposite in2="hardAlpha" operator="out"/>
<feColorMatrix type="matrix" values="0 0 0 0 0.210031 0 0 0 0 0.0633751 0 0 0 0 0.65 0 0 0 0.4 0"/>
<feBlend mode="normal" in2="BackgroundImageFix" result="effect1_dropShadow_1_327"/>
<feBlend mode="normal" in="SourceGraphic" in2="effect1_dropShadow_1_327" result="shape"/>
</filter>
<filter id="filter1_d_1_327" x="265.734" y="90.9543" width="142.651" height="164.032" filterUnits="userSpaceOnUse" color-interpolation-filters="sRGB">
<feFlood flood-opacity="0" result="BackgroundImageFix"/>
<feColorMatrix in="SourceAlpha" type="matrix" values="0 0 0 0 0 0 0 0 0 0 0 0 0 0 0 0 0 0 127 0" result="hardAlpha"/>
<feOffset dy="12.4269"/>
<feGaussianBlur stdDeviation="12.4269"/>
<feComposite in2="hardAlpha" operator="out"/>
<feColorMatrix type="matrix" values="0 0 0 0 0.210031 0 0 0 0 0.0633751 0 0 0 0 0.65 0 0 0 0.4 0"/>
<feBlend mode="normal" in2="BackgroundImageFix" result="effect1_dropShadow_1_327"/>
<feBlend mode="normal" in="SourceGraphic" in2="effect1_dropShadow_1_327" result="shape"/>
</filter>
<filter id="filter2_d_1_327" x="40.99" y="90.9543" width="142.651" height="164.032" filterUnits="userSpaceOnUse" color-interpolation-filters="sRGB">
<feFlood flood-opacity="0" result="BackgroundImageFix"/>
<feColorMatrix in="SourceAlpha" type="matrix" values="0 0 0 0 0 0 0 0 0 0 0 0 0 0 0 0 0 0 127 0" result="hardAlpha"/>
<feOffset dy="12.4269"/>
<feGaussianBlur stdDeviation="12.4269"/>
<feComposite in2="hardAlpha" operator="out"/>
<feColorMatrix type="matrix" values="0 0 0 0 0.210031 0 0 0 0 0.0633751 0 0 0 0 0.65 0 0 0 0.4 0"/>
<feBlend mode="normal" in2="BackgroundImageFix" result="effect1_dropShadow_1_327"/>
<feBlend mode="normal" in="SourceGraphic" in2="effect1_dropShadow_1_327" result="shape"/>
</filter>
</defs>
</svg>
