<svg width="72" height="88" viewBox="0 0 72 88" fill="none" xmlns="http://www.w3.org/2000/svg">
<g filter="url(#filter0_d_4_629)">
<path opacity="0.4" d="M16 36C16 51.464 28.536 64 44 64H72V8L44 8C28.536 8 16 20.536 16 36Z" fill="white"/>
<path fill-rule="evenodd" clip-rule="evenodd" d="M40.2929 42.7071C39.9024 42.3166 39.9024 41.6834 40.2929 41.2929L45.5858 36L40.2929 30.7071C39.9024 30.3166 39.9024 29.6834 40.2929 29.2929C40.6834 28.9024 41.3166 28.9024 41.7071 29.2929L47.7071 35.2929C48.0976 35.6834 48.0976 36.3166 47.7071 36.7071L41.7071 42.7071C41.3166 43.0976 40.6834 43.0976 40.2929 42.7071Z" fill="white"/>
</g>
<defs>
<filter id="filter0_d_4_629" x="0" y="0" width="88" height="88" filterUnits="userSpaceOnUse" color-interpolation-filters="sRGB">
<feFlood flood-opacity="0" result="BackgroundImageFix"/>
<feColorMatrix in="SourceAlpha" type="matrix" values="0 0 0 0 0 0 0 0 0 0 0 0 0 0 0 0 0 0 127 0" result="hardAlpha"/>
<feOffset dy="8"/>
<feGaussianBlur stdDeviation="8"/>
<feComposite in2="hardAlpha" operator="out"/>
<feColorMatrix type="matrix" values="0 0 0 0 0.210031 0 0 0 0 0.0633751 0 0 0 0 0.65 0 0 0 0.2 0"/>
<feBlend mode="normal" in2="BackgroundImageFix" result="effect1_dropShadow_4_629"/>
<feBlend mode="normal" in="SourceGraphic" in2="effect1_dropShadow_4_629" result="shape"/>
</filter>
</defs>
</svg>
