<svg width="105" height="118" viewBox="0 0 105 118" fill="none" xmlns="http://www.w3.org/2000/svg">
<path d="M60.6059 15.4682C61.721 13.0005 64.6255 11.904 67.0932 13.0191L75.4711 16.805C77.9388 17.9201 79.0353 20.8245 77.9202 23.2923L70.6009 39.4895L53.2866 31.6654L60.6059 15.4682Z" fill="white"/>
<path d="M56.0629 25.5217L73.3771 33.3458L46.2427 93.393L33.2279 101.609C32.484 102.078 31.5023 101.635 31.3632 100.766L28.9284 85.5689L56.0629 25.5217Z" fill="#343434"/>
<path d="M73.3766 33.346L56.0624 25.522L28.9279 85.5692L30.5764 95.8587C31.6279 96.0328 32.7634 96.3752 33.9011 96.8893C35.2328 97.4911 36.386 98.246 37.2778 99.0522L46.2422 93.3932L73.3766 33.346Z" fill="white"/>
<path d="M74.8917 29.9942C76.0068 27.5264 74.9103 24.622 72.4426 23.5069L64.0647 19.721C61.597 18.6059 58.6925 19.7024 57.5774 22.1701L29.7653 83.7169C32.114 83.2374 35.7901 83.6953 37.8139 88.2315C39.6618 87.238 43.9694 86.6532 46.9435 91.8421L74.8917 29.9942Z" fill="#7646FE"/>
<path d="M68.2534 21.6137L38.2416 88.0283C38.0875 88.0927 37.9444 88.1609 37.8136 88.2312C37.6872 87.9478 37.5543 87.6802 37.4156 87.4278L67.3421 21.2019L68.2534 21.6137Z" fill="#5523E4"/>
</svg>
