<svg width="197" height="167" viewBox="0 0 197 167" fill="none" xmlns="http://www.w3.org/2000/svg">
<g filter="url(#filter0_d_4_339)">
<path d="M116.09 80.2975H98.3588C98.3588 76.8163 98.6059 73.7504 99.1002 71.0999C99.6356 68.4099 100.542 65.9967 101.819 63.8605C103.095 61.7243 104.825 59.7463 107.008 57.9265C108.944 56.3837 110.612 54.9002 112.013 53.4761C113.413 52.0519 114.484 50.608 115.225 49.1443C115.967 47.6806 116.337 46.118 116.337 44.4565C116.337 42.3994 116.028 40.7181 115.411 39.4126C114.834 38.1071 113.948 37.1379 112.754 36.505C111.601 35.8325 110.139 35.4962 108.367 35.4962C106.926 35.4962 105.567 35.8325 104.29 36.505C103.054 37.1775 102.045 38.2258 101.263 39.65C100.48 41.0346 100.047 42.8741 99.9651 45.1685H79.021C79.1446 39.2742 80.5038 34.4874 83.0986 30.8084C85.7346 27.0898 89.2356 24.3799 93.6016 22.6789C98.0087 20.9382 102.931 20.0679 108.367 20.0679C114.381 20.0679 119.55 20.958 123.875 22.7382C128.2 24.5184 131.515 27.1689 133.822 30.6897C136.128 34.171 137.281 38.4632 137.281 43.5664C137.281 46.9685 136.602 49.9355 135.243 52.4673C133.925 54.9596 132.133 57.2936 129.868 59.4694C127.643 61.6056 125.152 63.9001 122.392 66.3528C120.003 68.3703 118.376 70.4274 117.511 72.5241C116.646 74.5812 116.173 77.1723 116.09 80.2975ZM95.8257 98.3368C95.8257 95.4885 96.8966 93.1149 99.0384 91.216C101.18 89.2776 103.96 88.3084 107.379 88.3084C110.798 88.3084 113.578 89.2776 115.72 91.216C117.861 93.1149 118.932 95.4885 118.932 98.3368C118.932 101.185 117.861 103.578 115.72 105.517C113.578 107.416 110.798 108.365 107.379 108.365C103.96 108.365 101.18 107.416 99.0384 105.517C96.8966 103.578 95.8257 101.185 95.8257 98.3368Z" fill="#FFB184"/>
</g>
<g filter="url(#filter1_d_4_339)">
<path d="M145.948 97.8704L135.989 92.7786C137.072 90.8233 138.165 89.1723 139.268 87.8255C140.406 86.4683 141.666 85.3731 143.049 84.5399C144.431 83.7067 146.018 83.0925 147.811 82.6973C149.378 82.3866 150.777 82.0324 152.007 81.6346C153.237 81.2368 154.288 80.7333 155.16 80.1241C156.032 79.5149 156.726 78.7437 157.243 77.8104C157.884 76.655 158.234 75.622 158.293 74.7113C158.376 73.8125 158.18 73.0138 157.706 72.3153C157.268 71.6064 156.551 70.9977 155.556 70.4891C154.747 70.0751 153.878 69.8737 152.952 69.8848C152.049 69.9077 151.155 70.2067 150.273 70.7819C149.402 71.3349 148.587 72.2439 147.826 73.509L136.062 67.4947C137.967 64.2195 140.22 61.9212 142.823 60.5999C145.461 59.2683 148.271 58.7516 151.252 59.0498C154.27 59.3377 157.305 60.2623 160.359 61.8235C163.736 63.5503 166.363 65.5346 168.238 67.7764C170.113 70.0181 171.15 72.4589 171.349 75.0988C171.561 77.7165 170.873 80.4585 169.284 83.3248C168.225 85.2357 166.92 86.707 165.368 87.7387C163.852 88.7601 162.119 89.5565 160.17 90.1281C158.256 90.6893 156.142 91.2624 153.828 91.8476C151.858 92.2948 150.304 92.983 149.166 93.9123C148.04 94.8193 146.967 96.1387 145.948 97.8704ZM128.951 102.183C129.837 100.584 131.178 99.5579 132.972 99.1064C134.778 98.6327 136.641 98.8866 138.561 99.8683C140.482 100.85 141.741 102.193 142.341 103.897C142.953 105.578 142.815 107.219 141.929 108.819C141.042 110.418 139.696 111.455 137.889 111.929C136.095 112.38 134.238 112.115 132.318 111.134C130.398 110.152 129.132 108.82 128.52 107.139C127.92 105.435 128.064 103.783 128.951 102.183Z" fill="#CAB7FF"/>
</g>
<g filter="url(#filter2_d_4_339)">
<path d="M57.0638 97.8704L67.0231 92.7786C65.9394 90.8233 64.8462 89.1723 63.7436 87.8255C62.6055 86.4683 61.3453 85.3731 59.9632 84.5399C58.5811 83.7067 56.9937 83.0925 55.2011 82.6973C53.6336 82.3866 52.2349 82.0324 51.005 81.6346C49.7751 81.2368 48.7242 80.7333 47.8521 80.1241C46.9801 79.5149 46.2854 78.7437 45.7682 77.8104C45.1279 76.655 44.778 75.622 44.7187 74.7113C44.6362 73.8125 44.8319 73.0138 45.3057 72.3153C45.7441 71.6064 46.4607 70.9977 47.4555 70.4891C48.2652 70.0751 49.1333 69.8737 50.0598 69.8848C50.9632 69.9077 51.8563 70.2067 52.7391 70.7819C53.6097 71.3349 54.4252 72.2439 55.1857 73.509L66.9494 67.4947C65.0452 64.2195 62.7917 61.9212 60.189 60.5999C57.5509 59.2683 54.741 58.7516 51.7593 59.0498C48.7421 59.3377 45.7066 60.2623 42.6529 61.8235C39.2753 63.5503 36.6491 65.5346 34.7741 67.7764C32.8992 70.0181 31.862 72.4589 31.6624 75.0988C31.4506 77.7165 32.1389 80.4585 33.7275 83.3248C34.7865 85.2357 36.0918 86.707 37.6433 87.7387C39.1594 88.7601 40.8923 89.5565 42.842 90.1281C44.7562 90.6893 46.87 91.2624 49.1835 91.8476C51.1533 92.2948 52.7075 92.983 53.8459 93.9123C54.9721 94.8193 56.0447 96.1387 57.0638 97.8704ZM74.0611 102.183C73.1745 100.584 71.8342 99.5579 70.0401 99.1064C68.2337 98.6327 66.3705 98.8866 64.4503 99.8683C62.5302 100.85 61.2704 102.193 60.6708 103.897C60.0589 105.578 60.1963 107.219 61.0829 108.819C61.9695 110.418 63.316 111.455 65.1224 111.929C66.9165 112.38 68.7736 112.115 70.6937 111.134C72.6138 110.152 73.8798 108.82 74.4917 107.139C75.0913 105.435 74.9478 103.783 74.0611 102.183Z" fill="#FFA9D2"/>
</g>
<path d="M111.102 81.053L111.986 81.063L112.02 80.18C112.138 77.1268 112.63 74.6614 113.462 72.7501L113.464 72.7444C114.28 70.8323 115.821 68.9041 118.163 66.9731L118.171 66.9658L118.18 66.9583C120.977 64.5308 123.506 62.2569 125.766 60.1367C128.12 57.9287 130.002 55.5405 131.402 52.9703C132.876 50.3013 133.618 47.1907 133.661 43.6677C133.726 38.4277 132.596 33.9391 130.217 30.2524C127.845 26.5354 124.411 23.7359 119.96 21.8438C115.522 19.9572 110.241 18.9948 104.142 18.9257C98.6091 18.863 93.562 19.6917 89.0131 21.428C84.4663 23.1402 80.7869 25.9174 77.9983 29.7531L77.9971 29.7548C75.2229 33.5899 73.7716 38.5517 73.5714 44.5698L73.5406 45.4957L74.467 45.5062L95.4097 45.7436L96.2849 45.7536L96.327 44.8793C96.4335 42.6712 96.869 40.9948 97.5703 39.7883L97.5703 39.7883L97.5757 39.7789C98.3026 38.493 99.2048 37.5926 100.27 37.0271C101.423 36.4382 102.638 36.1526 103.93 36.1672C105.592 36.1861 106.879 36.5166 107.849 37.097L107.864 37.1064L107.881 37.1152C108.878 37.6586 109.616 38.4773 110.102 39.6132L110.106 39.624L110.111 39.6348C110.639 40.7848 110.918 42.324 110.894 44.2998C110.875 45.8206 110.519 47.2386 109.827 48.5659C109.119 49.9225 108.092 51.2805 106.726 52.6366C105.34 54.0138 103.682 55.4542 101.75 56.9576L101.742 56.9637L101.734 56.97C99.461 58.8204 97.635 60.8537 96.2715 63.0739C94.9089 65.2925 93.9375 67.7941 93.3497 70.5691L93.3497 70.569L93.3475 70.5798C92.8072 73.2924 92.519 76.4129 92.4757 79.9345L92.4646 80.8417L93.3718 80.852L111.102 81.053ZM93.3313 90.1876C90.9735 92.2306 89.7594 94.8362 89.7212 97.9438C89.683 101.052 90.8329 103.702 93.1355 105.836L93.1424 105.842C95.4556 107.942 98.4516 108.979 102.046 109.02C105.641 109.061 108.662 108.092 111.026 106.045L111.033 106.039C113.388 103.958 114.602 101.335 114.64 98.2263C114.679 95.1187 113.529 92.4863 111.222 90.3904C108.91 88.2498 105.913 87.191 102.315 87.1502C98.7173 87.1094 95.6951 88.1 93.3313 90.1876Z" stroke="white" stroke-width="1.81447"/>
<path d="M142.914 96.8575L143.412 97.1193L143.703 96.6375C144.72 94.9553 145.766 93.7105 146.829 92.8743L146.832 92.8719C147.887 92.0309 149.354 91.3904 151.27 90.9783L151.277 90.9768L151.284 90.975C153.611 90.4147 155.739 89.8636 157.669 89.3218C159.678 88.7575 161.478 87.9568 163.063 86.9157C164.72 85.841 166.104 84.3089 167.224 82.3446C168.89 79.4222 169.652 76.579 169.463 73.8271C169.288 71.0596 168.231 68.5006 166.319 66.1582C164.412 63.8226 161.744 61.7645 158.338 59.9735C155.248 58.3485 152.154 57.3641 149.057 57.0329C145.967 56.6887 143.036 57.1926 140.276 58.5457L140.275 58.5463C137.525 59.9028 135.167 62.271 133.183 65.5914L132.881 66.0976L133.402 66.3719L145.091 72.5191L145.584 72.7785L145.877 72.3038C146.626 71.0926 147.394 70.2742 148.165 69.7967L148.165 69.7967L148.171 69.793C148.981 69.2786 149.768 69.0323 150.541 69.0207C151.37 69.0208 152.139 69.2091 152.858 69.587C153.783 70.0736 154.401 70.6274 154.764 71.2299L154.77 71.2399L154.777 71.2497C155.166 71.8395 155.327 72.5116 155.246 73.2915L155.245 73.2988L155.245 73.3061C155.183 74.1058 154.859 75.0526 154.23 76.1568C153.745 77.0079 153.102 77.704 152.298 78.2515C151.478 78.8109 150.477 79.2788 149.288 79.6484C148.081 80.0238 146.702 80.3569 145.148 80.6464L145.148 80.6462L145.136 80.6489C143.283 81.0354 141.624 81.6531 140.168 82.5081C138.713 83.3624 137.39 84.4876 136.197 85.8762L136.197 85.8762L136.193 85.8815C135.046 87.249 133.913 88.9181 132.793 90.883L132.507 91.3845L133.018 91.6532L142.914 96.8575ZM135.099 110.874L135.099 110.874L135.105 110.873C137.075 110.38 138.571 109.257 139.557 107.527C140.543 105.797 140.718 103.991 140.074 102.152C139.442 100.284 138.087 98.8265 136.075 97.7685C134.063 96.7106 132.054 96.3992 130.076 96.8933C128.115 97.3637 126.626 98.4775 125.64 100.207C124.653 101.938 124.473 103.753 125.102 105.613L125.102 105.613L125.104 105.618C125.75 107.463 127.112 108.908 129.122 109.965C131.132 111.022 133.133 111.345 135.099 110.874Z" stroke="white" stroke-width="1.15453"/>
<path d="M60.0983 96.8575L59.6004 97.1193L59.309 96.6375C58.2916 94.9553 57.2463 93.7105 56.1829 92.8743L56.1798 92.8719C55.1245 92.0309 53.6578 91.3904 51.7421 90.9783L51.7348 90.9768L51.7276 90.975C49.4011 90.4147 47.2729 89.8636 45.3434 89.3218C43.334 88.7575 41.5338 87.9568 39.9485 86.9157C38.2915 85.841 36.9078 84.3089 35.788 82.3446C34.122 79.4222 33.3602 76.579 33.5487 73.8271C33.724 71.0596 34.781 68.5006 36.6932 66.1582C38.5998 63.8226 41.268 61.7645 44.6736 59.9735C47.7635 58.3485 50.8581 57.3641 53.9553 57.0329C57.0445 56.6887 59.9762 57.1926 62.7355 58.5457L62.7367 58.5463C65.4869 59.9028 67.8446 62.271 69.829 65.5914L70.1315 66.0976L69.6099 66.3719L57.9209 72.5191L57.4277 72.7785L57.1345 72.3038C56.3864 71.0926 55.6185 70.2742 54.8471 69.7967L54.847 69.7967L54.8412 69.793C54.0311 69.2786 53.2439 69.0323 52.4712 69.0207C51.6422 69.0208 50.8728 69.2091 50.1542 69.587C49.2289 70.0736 48.6105 70.6274 48.2478 71.2299L48.2418 71.2399L48.2354 71.2497C47.8455 71.8395 47.6848 72.5116 47.766 73.2915L47.7668 73.2988L47.7673 73.3061C47.8293 74.1058 48.1526 75.0526 48.782 76.1568C49.2672 77.0079 49.9099 77.704 50.7135 78.2515C51.5343 78.8109 52.5345 79.2788 53.7235 79.6484C54.931 80.0238 56.3103 80.3569 57.8635 80.6464L57.8635 80.6462L57.8762 80.6489C59.7294 81.0354 61.3877 81.6531 62.8438 82.5081C64.2988 83.3624 65.622 84.4876 66.8149 85.8762L66.8149 85.8762L66.8193 85.8815C67.9664 87.249 69.0991 88.9181 70.2193 90.883L70.5052 91.3845L69.9943 91.6532L60.0983 96.8575ZM67.9129 110.874L67.9129 110.874L67.907 110.873C65.9366 110.38 64.4412 109.257 63.4548 107.527C62.4687 105.797 62.2942 103.991 62.9375 102.152C63.5699 100.284 64.9254 98.8265 66.937 97.7685C68.9487 96.7106 70.9577 96.3992 72.9362 96.8933C74.8967 97.3637 76.3863 98.4775 77.3724 100.207C78.3589 101.938 78.5386 103.753 77.9095 105.613L77.9095 105.613L77.9076 105.618C77.2616 107.463 75.9 108.908 73.8902 109.965C71.8804 111.022 69.8791 111.345 67.9129 110.874Z" stroke="white" stroke-width="1.15453"/>
<path d="M193 44.3721C188.238 47.1628 176.39 50.2326 167.092 40.186C155.47 27.6279 150.627 18.3256 133.92 16" stroke="white" stroke-linecap="round"/>
<path d="M1 108.791C7.45682 106 22.9855 102.884 33.4455 112.744C46.5206 125.07 54.2688 132.279 70.2494 127.628" stroke="white" stroke-linecap="round"/>
<path d="M44.0836 24.1395C44.0836 27.0555 41.6165 29.4535 38.5303 29.4535C35.4441 29.4535 32.9771 27.0555 32.9771 24.1395C32.9771 21.2235 35.4441 18.8256 38.5303 18.8256C41.6165 18.8256 44.0836 21.2235 44.0836 24.1395Z" stroke="white"/>
<path d="M147.464 119.488C147.464 120.092 146.948 120.616 146.269 120.616C145.59 120.616 145.074 120.092 145.074 119.488C145.074 118.884 145.59 118.36 146.269 118.36C146.948 118.36 147.464 118.884 147.464 119.488Z" stroke="white"/>
<defs>
<filter id="filter0_d_4_339" x="39.9604" y="0.537632" width="136.382" height="166.418" filterUnits="userSpaceOnUse" color-interpolation-filters="sRGB">
<feFlood flood-opacity="0" result="BackgroundImageFix"/>
<feColorMatrix in="SourceAlpha" type="matrix" values="0 0 0 0 0 0 0 0 0 0 0 0 0 0 0 0 0 0 127 0" result="hardAlpha"/>
<feOffset dy="19.5303"/>
<feGaussianBlur stdDeviation="19.5303"/>
<feComposite in2="hardAlpha" operator="out"/>
<feColorMatrix type="matrix" values="0 0 0 0 0.210031 0 0 0 0 0.0633751 0 0 0 0 0.65 0 0 0 0.4 0"/>
<feBlend mode="normal" in2="BackgroundImageFix" result="effect1_dropShadow_4_339"/>
<feBlend mode="normal" in="SourceGraphic" in2="effect1_dropShadow_4_339" result="shape"/>
</filter>
<filter id="filter1_d_4_339" x="103.303" y="46.5411" width="92.937" height="102.882" filterUnits="userSpaceOnUse" color-interpolation-filters="sRGB">
<feFlood flood-opacity="0" result="BackgroundImageFix"/>
<feColorMatrix in="SourceAlpha" type="matrix" values="0 0 0 0 0 0 0 0 0 0 0 0 0 0 0 0 0 0 127 0" result="hardAlpha"/>
<feOffset dy="12.4269"/>
<feGaussianBlur stdDeviation="12.4269"/>
<feComposite in2="hardAlpha" operator="out"/>
<feColorMatrix type="matrix" values="0 0 0 0 0.210031 0 0 0 0 0.0633751 0 0 0 0 0.65 0 0 0 0.4 0"/>
<feBlend mode="normal" in2="BackgroundImageFix" result="effect1_dropShadow_4_339"/>
<feBlend mode="normal" in="SourceGraphic" in2="effect1_dropShadow_4_339" result="shape"/>
</filter>
<filter id="filter2_d_4_339" x="6.77122" y="46.5411" width="92.937" height="102.882" filterUnits="userSpaceOnUse" color-interpolation-filters="sRGB">
<feFlood flood-opacity="0" result="BackgroundImageFix"/>
<feColorMatrix in="SourceAlpha" type="matrix" values="0 0 0 0 0 0 0 0 0 0 0 0 0 0 0 0 0 0 127 0" result="hardAlpha"/>
<feOffset dy="12.4269"/>
<feGaussianBlur stdDeviation="12.4269"/>
<feComposite in2="hardAlpha" operator="out"/>
<feColorMatrix type="matrix" values="0 0 0 0 0.210031 0 0 0 0 0.0633751 0 0 0 0 0.65 0 0 0 0.4 0"/>
<feBlend mode="normal" in2="BackgroundImageFix" result="effect1_dropShadow_4_339"/>
<feBlend mode="normal" in="SourceGraphic" in2="effect1_dropShadow_4_339" result="shape"/>
</filter>
</defs>
</svg>
