<svg width="30" height="30" viewBox="0 0 30 30" fill="none" xmlns="http://www.w3.org/2000/svg">
<path d="M4.5 15H3V27C3 27.7956 3.31607 28.5587 3.87868 29.1213C4.44129 29.6839 5.20435 30 6 30H13.5V15H4.5ZM24 15H16.5V30H24C24.7956 30 25.5587 29.6839 26.1213 29.1213C26.6839 28.5587 27 27.7956 27 27V15H24ZM25.1865 7.5C25.4065 6.77068 25.5123 6.01169 25.5 5.25C25.5 2.355 23.145 0 20.25 0C17.817 0 16.1925 2.223 15.144 4.6275C14.1105 2.355 12.4035 0 9.75 0C6.855 0 4.5 2.355 4.5 5.25C4.5 6.144 4.6185 6.8835 4.8135 7.5H0V13.5H13.5V10.5H16.5V13.5H30V7.5H25.1865ZM7.5 5.25C7.5 4.0095 8.5095 3 9.75 3C11.082 3 12.321 5.2875 13.047 7.5H9C8.439 7.5 7.5 7.5 7.5 5.25ZM20.25 3C21.4905 3 22.5 4.0095 22.5 5.25C22.5 7.5 21.561 7.5 21 7.5H17.2845C18.0495 5.136 19.161 3 20.25 3Z" fill="white"/>
</svg>
