<svg width="36" height="40" viewBox="0 0 36 40" fill="none" xmlns="http://www.w3.org/2000/svg">
<path d="M20.2376 6.88571C20.9578 5.29198 22.8336 4.58383 24.4274 5.30401C26.0211 6.0242 26.7293 7.9 26.0091 9.49373L24.2003 13.4965L18.4289 10.8885L20.2376 6.88571Z" fill="white"/>
<path d="M19.3543 8.84058L25.1257 11.4486L16.0809 31.4643L12.7898 33.5419C12.046 34.0115 11.0643 33.5678 10.9251 32.6992L10.3095 28.8563L19.3543 8.84058Z" fill="#343434"/>
<path d="M25.1256 11.4488L19.3541 8.84082L10.3093 28.8566L10.8588 32.2864C11.2093 32.3444 11.5878 32.4586 11.9671 32.6299C12.4109 32.8305 12.7953 33.0822 13.0926 33.3509L16.0808 31.4646L25.1256 11.4488Z" fill="white"/>
<path d="M24.9996 11.7279C25.7198 10.1341 25.0116 8.25833 23.4179 7.53814C21.8242 6.81796 19.9484 7.52611 19.2282 9.11985L10.5885 28.2391C11.3714 28.0793 12.5967 28.2319 13.2713 29.744C13.8873 29.4128 15.3232 29.2179 16.3145 30.9475L24.9996 11.7279Z" fill="#7646FE"/>
<path d="M23.4178 7.53814L13.4139 29.6764C13.3625 29.6978 13.3148 29.7206 13.2712 29.744C13.2291 29.6495 13.1848 29.5603 13.1385 29.4762L23.1141 7.40088L23.4178 7.53814Z" fill="#5523E4"/>
</svg>
